<?xml version="1.0" standalone="no"?>
<!DOCTYPE svg PUBLIC "-//W3C//DTD SVG 20010904//EN"
 "http://www.w3.org/TR/2001/REC-SVG-20010904/DTD/svg10.dtd">
<svg version="1.0" xmlns="http://www.w3.org/2000/svg"
 width="544.000000pt" height="544.000000pt" viewBox="0 0 544.000000 544.000000"
 preserveAspectRatio="xMidYMid meet">
<metadata>
Created by potrace 1.14, written by Peter Selinger 2001-2017
</metadata>
<g transform="translate(0.000000,544.000000) scale(0.100000,-0.100000)"
fill="#000000" stroke="none">
<path d="M2548 5435 c-1 -1 -39 -6 -83 -9 -241 -19 -591 -107 -801 -201 -340
-154 -567 -304 -809 -535 -79 -75 -163 -165 -215 -229 -19 -24 -40 -48 -45
-55 -71 -78 -198 -280 -286 -451 -110 -213 -209 -494 -243 -690 -3 -16 -11
-57 -16 -90 -6 -33 -13 -71 -15 -85 -26 -155 -26 -585 0 -741 7 -40 24 -142
29 -169 31 -179 131 -472 223 -655 273 -543 650 -932 1183 -1218 195 -104 519
-220 710 -253 257 -45 349 -53 595 -48 226 5 219 4 375 29 654 104 1268 462
1682 980 62 79 208 289 208 301 0 4 6 15 14 23 23 26 141 268 185 379 135 340
193 666 186 1052 -2 113 -6 216 -8 230 -3 14 -8 52 -12 85 -4 32 -9 68 -11 80
-20 104 -28 141 -46 215 -26 108 -78 271 -90 288 -6 6 -8 12 -5 12 7 0 -56
149 -109 253 -223 446 -572 833 -979 1086 -38 24 -81 51 -95 61 -38 25 -245
124 -340 163 -134 55 -322 112 -475 143 -22 5 -173 29 -245 39 -46 7 -456 16
-462 10z"/>
</g>
</svg>
